<?xml version="1.0" standalone="no"?>
<!DOCTYPE svg PUBLIC "-//W3C//DTD SVG 20010904//EN"
 "http://www.w3.org/TR/2001/REC-SVG-20010904/DTD/svg10.dtd">
<svg version="1.0" xmlns="http://www.w3.org/2000/svg"
 width="1920.000000pt" height="1080.000000pt" viewBox="0 0 1920.000000 1080.000000"
 preserveAspectRatio="xMidYMid meet">

<g transform="translate(0.000000,1080.000000) scale(0.100000,-0.100000)"
fill="#000000" stroke="none">
<path d="M0 5730 l0 -3830 9600 0 9600 0 0 3830 0 3830 -9600 0 -9600 0 0
-3830z m2094 1180 c308 -864 563 -1570 566 -1570 4 0 260 707 570 1570 l564
1570 618 0 618 0 0 -2720 0 -2720 -655 0 -655 0 -2 939 -3 940 -329 -940 -330
-939 -396 0 -396 0 -333 963 c-184 529 -338 969 -342 977 -5 8 -9 -425 -9
-962 l0 -978 -650 0 -650 0 0 2720 0 2720 628 0 627 0 559 -1570z m5946 1546
c417 -83 706 -255 910 -541 189 -266 284 -580 310 -1027 26 -425 -50 -741
-259 -1087 -63 -104 -180 -249 -267 -330 -125 -117 -286 -216 -401 -246 -31
-8 -58 -17 -60 -19 -2 -2 239 -482 536 -1067 297 -585 543 -1072 547 -1081 6
-17 -32 -18 -697 -18 l-704 0 -365 881 c-200 484 -368 883 -372 885 -4 3 -8
-393 -8 -880 l0 -886 -615 0 -615 0 0 2720 0 2721 988 -4 c879 -3 996 -6 1072
-21z m4460 -5 c273 -45 485 -127 710 -277 249 -164 400 -343 580 -684 50 -96
100 -186 110 -201 l19 -26 -506 -333 c-353 -232 -508 -329 -512 -319 -2 8 -32
70 -67 139 -92 184 -187 286 -334 360 -110 56 -160 65 -340 64 -157 0 -170 -2
-260 -32 -194 -64 -330 -185 -425 -377 -104 -210 -107 -244 -103 -1055 4 -639
4 -657 26 -735 78 -282 229 -478 457 -591 131 -64 220 -84 382 -84 162 0 262
18 359 65 82 40 196 140 243 213 31 48 31 50 31 185 l0 137 -290 0 -290 0 0
525 0 525 880 0 880 0 0 -953 0 -953 -87 -110 c-104 -128 -276 -304 -386 -393
-332 -268 -736 -441 -1167 -498 -193 -26 -575 -7 -775 38 -395 88 -735 285
-982 568 -264 302 -428 686 -510 1196 -25 155 -31 1579 -8 1774 95 785 477
1369 1091 1667 185 90 388 148 659 188 17 2 134 3 260 1 173 -2 261 -8 355
-24z m4910 15 c162 -22 306 -55 410 -93 500 -186 826 -482 1055 -958 58 -121
125 -287 125 -309 0 -8 -59 -48 -132 -89 -73 -41 -310 -174 -526 -296 l-394
-220 -16 42 c-31 81 -122 258 -163 318 -54 79 -157 188 -232 245 -77 58 -205
119 -281 134 -266 54 -586 -69 -764 -293 -66 -83 -133 -210 -165 -312 -46
-148 -49 -211 -45 -935 4 -652 5 -678 26 -755 43 -162 95 -267 192 -389 172
-217 462 -337 738 -307 113 12 219 45 300 93 123 73 311 293 381 446 18 39 29
51 40 47 45 -17 1041 -580 1041 -588 0 -16 -106 -211 -178 -327 -179 -290
-433 -517 -760 -680 -207 -103 -356 -149 -602 -187 -159 -24 -593 -24 -765 0
-442 62 -768 219 -1056 506 -276 277 -438 614 -528 1096 -55 295 -54 273 -58
1043 -4 621 -2 743 12 864 58 510 241 950 534 1285 295 338 723 564 1171 618
146 18 509 18 640 1z"/>
<path d="M4797 3 c2642 -2 6964 -2 9605 0 2642 1 481 2 -4802 2 -5283 0 -7444
-1 -4803 -2z"/>
</g>
</svg>
